<svg xmlns="http://www.w3.org/2000/svg" width="16.5" height="22" viewBox="0 0 16.5 22"><defs><style>.a{fill:#f7b500;}</style></defs><path class="a" d="M9.625,5.844V0H1.031A1.029,1.029,0,0,0,0,1.031V20.969A1.029,1.029,0,0,0,1.031,22H15.469A1.029,1.029,0,0,0,16.5,20.969V6.875H10.656A1.034,1.034,0,0,1,9.625,5.844Zm2.75,10.141a.517.517,0,0,1-.516.516H4.641a.517.517,0,0,1-.516-.516v-.344a.517.517,0,0,1,.516-.516h7.219a.517.517,0,0,1,.516.516Zm0-2.75a.517.517,0,0,1-.516.516H4.641a.517.517,0,0,1-.516-.516v-.344a.517.517,0,0,1,.516-.516h7.219a.517.517,0,0,1,.516.516Zm0-3.094v.344a.517.517,0,0,1-.516.516H4.641a.517.517,0,0,1-.516-.516v-.344a.517.517,0,0,1,.516-.516h7.219A.517.517,0,0,1,12.375,10.141Zm4.125-4.9V5.5H11V0h.262a1.03,1.03,0,0,1,.73.3L16.2,4.512A1.028,1.028,0,0,1,16.5,5.238Z"/></svg>